<mxfile host="65bd71144e">
    <diagram id="SIQWEmwLU2hloBs9Fhga" name="Page-1">
        <mxGraphModel dx="533" dy="610" grid="1" gridSize="10" guides="1" tooltips="1" connect="1" arrows="1" fold="1" page="1" pageScale="1" pageWidth="850" pageHeight="1100" math="0" shadow="0">
            <root>
                <mxCell id="0"/>
                <mxCell id="1" parent="0"/>
                <mxCell id="35" value="&lt;br&gt;&lt;br&gt;X" style="rounded=0;whiteSpace=wrap;html=1;" vertex="1" parent="1">
                    <mxGeometry x="330" y="960" width="120" height="60" as="geometry"/>
                </mxCell>
                <mxCell id="34" value="Tcache&amp;nbsp; &amp;nbsp; &amp;nbsp; &amp;nbsp; &amp;nbsp; &amp;nbsp; &amp;nbsp; &amp;nbsp; &amp;nbsp; &amp;nbsp; &amp;nbsp; &amp;nbsp; &amp;nbsp; &amp;nbsp; &amp;nbsp; &amp;nbsp; &amp;nbsp; &amp;nbsp; &amp;nbsp; &amp;nbsp; &amp;nbsp; &amp;nbsp; &amp;nbsp; &amp;nbsp; &amp;nbsp; &amp;nbsp; &amp;nbsp; &amp;nbsp; &amp;nbsp; &amp;nbsp; &amp;nbsp; &amp;nbsp;" style="rounded=0;whiteSpace=wrap;html=1;" vertex="1" parent="1">
                    <mxGeometry x="130" y="730" width="410" height="60" as="geometry"/>
                </mxCell>
                <mxCell id="2" value="fd" style="rounded=0;whiteSpace=wrap;html=1;" vertex="1" parent="1">
                    <mxGeometry x="330" y="960" width="60" height="20" as="geometry"/>
                </mxCell>
                <mxCell id="3" value="bk" style="rounded=0;whiteSpace=wrap;html=1;" vertex="1" parent="1">
                    <mxGeometry x="390" y="960" width="60" height="20" as="geometry"/>
                </mxCell>
                <mxCell id="40" style="edgeStyle=none;html=1;exitX=0;exitY=0.25;exitDx=0;exitDy=0;entryX=0;entryY=0.75;entryDx=0;entryDy=0;" edge="1" parent="1" source="4" target="37">
                    <mxGeometry relative="1" as="geometry">
                        <mxPoint x="290" y="840" as="targetPoint"/>
                        <Array as="points">
                            <mxPoint x="290" y="738"/>
                            <mxPoint x="290" y="865"/>
                        </Array>
                    </mxGeometry>
                </mxCell>
                <mxCell id="4" value="0x70 bin" style="rounded=0;whiteSpace=wrap;html=1;" vertex="1" parent="1">
                    <mxGeometry x="330" y="730" width="120" height="30" as="geometry"/>
                </mxCell>
                <mxCell id="6" value="count: 2" style="rounded=0;whiteSpace=wrap;html=1;" vertex="1" parent="1">
                    <mxGeometry x="330" y="760" width="120" height="30" as="geometry"/>
                </mxCell>
                <mxCell id="36" value="&lt;br&gt;&lt;br&gt;Y" style="rounded=0;whiteSpace=wrap;html=1;" vertex="1" parent="1">
                    <mxGeometry x="330" y="850" width="120" height="60" as="geometry"/>
                </mxCell>
                <mxCell id="41" style="edgeStyle=none;html=1;entryX=0;entryY=0.75;entryDx=0;entryDy=0;exitX=0;exitY=1;exitDx=0;exitDy=0;" edge="1" parent="1" source="37" target="2">
                    <mxGeometry relative="1" as="geometry">
                        <Array as="points">
                            <mxPoint x="290" y="870"/>
                            <mxPoint x="290" y="975"/>
                        </Array>
                    </mxGeometry>
                </mxCell>
                <mxCell id="37" value="fd" style="rounded=0;whiteSpace=wrap;html=1;" vertex="1" parent="1">
                    <mxGeometry x="330" y="850" width="60" height="20" as="geometry"/>
                </mxCell>
                <mxCell id="38" value="bk" style="rounded=0;whiteSpace=wrap;html=1;" vertex="1" parent="1">
                    <mxGeometry x="390" y="850" width="60" height="20" as="geometry"/>
                </mxCell>
            </root>
        </mxGraphModel>
    </diagram>
</mxfile>